<svg width="57" height="66" viewBox="0 0 57 66" fill="none" xmlns="http://www.w3.org/2000/svg">
<path d="M11.0449 25.9481C11.0449 25.2347 11.6233 24.6562 12.3368 24.6562H16.6431C17.3566 24.6562 17.935 25.2347 17.935 25.9481V65.9969H11.0449V25.9481Z" fill="#006FCF"/>
<path d="M11.0449 44.8954C11.0449 44.1819 11.6233 43.6035 12.3368 43.6035H16.6431C17.3566 43.6035 17.935 44.1819 17.935 44.8954V65.9964H11.0449V44.8954Z" fill="#006FCF"/>
<path d="M20.7363 32.4794C20.7363 31.7659 21.3147 31.1875 22.0282 31.1875H25.9719C26.6854 31.1875 27.2638 31.7659 27.2638 32.4794V66.0007H20.7363V32.4794Z" fill="#006FCF"/>
<path d="M20.7363 48.4364C20.7363 47.7229 21.3147 47.1445 22.0282 47.1445H25.9719C26.6854 47.1445 27.2638 47.7229 27.2638 48.4364V66.0017H20.7363V48.4364Z" fill="#006FCF"/>
<path d="M30.1621 20.1513C30.1621 19.4378 30.7405 18.8594 31.454 18.8594H36.123C36.8365 18.8594 37.4149 19.4378 37.4149 20.1513V66.0022H30.1621V20.1513Z" fill="#006FCF"/>
<path d="M30.1621 41.7587C30.1621 41.0452 30.7405 40.4668 31.454 40.4668H36.123C36.8365 40.4668 37.4149 41.0452 37.4149 41.7587V66.0025H30.1621V41.7587Z" fill="#006FCF"/>
<path d="M40.3184 30.2997C40.3184 29.5862 40.8968 29.0078 41.6103 29.0078H45.5539C46.2674 29.0078 46.8458 29.5862 46.8458 30.2997V65.9968H40.3184V30.2997Z" fill="#006FCF"/>
<path d="M40.3184 47.2528C40.3184 46.5393 40.8968 45.9609 41.6103 45.9609H45.5539C46.2674 45.9609 46.8458 46.5393 46.8458 47.2528V65.9967H40.3184V47.2528Z" fill="#006FCF"/>
<path d="M49.748 1.29189C49.748 0.578401 50.3264 0 51.0399 0H55.7089C56.4224 0 57.0008 0.578401 57.0008 1.2919V66H49.748V1.29189Z" fill="#006FCF"/>
<path d="M49.748 31.5419C49.748 30.8284 50.3264 30.25 51.0399 30.25H55.7089C56.4224 30.25 57.0008 30.8284 57.0008 31.5419V66H49.748V31.5419Z" fill="#006FCF"/>
</svg>
